<svg width="1440" height="347" viewBox="0 0 1440 347" fill="none" xmlns="http://www.w3.org/2000/svg">
<path fill-rule="evenodd" clip-rule="evenodd" d="M-1.48823 112C73.1712 90.7979 150.195 54.8557 303.938 87.9389C457.682 121.022 615.851 229.593 768.12 237.514C920.388 245.434 1066.76 152.705 1217.06 127.076C1333.55 107.212 1364.08 109 1441.64 124L1441.64 343.5L1441.64 347.5C1441.64 347.5 1385.59 347.5 1235.48 347.5C1085.36 347.5 936.244 347.5 782.624 347.5C629.004 347.5 482.39 347.5 332.773 347.5C183.156 347.5 89.0825 347.5 -1.48817 347.5L-1.48801 344.5L-1.48822 259.5L-1.48823 112Z" fill="url(#paint0_linear_2496_2115)" fill-opacity="0.9"/>
<path fill-rule="evenodd" clip-rule="evenodd" d="M0.0129907 267L20.3659 257.527C87.1205 237.169 220.63 196.453 354.46 208.95C488.291 221.448 622.442 287.159 756.152 279.701C889.862 272.243 1023.13 191.617 1156.76 170.856C1290.39 150.096 1373.14 179.448 1440.14 199L1440.14 208.752L1440.14 339.5L1440.14 345C1373.26 345.403 1299.67 345.694 1165.92 346.5C1032.17 347.306 922.379 345.694 788.629 346.5C654.879 347.306 517.062 345.694 383.312 346.5C249.562 347.306 114.425 346.097 47.5501 346.5L0.0132092 346.5L0.0129907 267Z" fill="url(#paint1_linear_2496_2115)"/>
<defs>
<linearGradient id="paint0_linear_2496_2115" x1="640.937" y1="47.8947" x2="558.975" y2="192.192" gradientUnits="userSpaceOnUse">
<stop stop-color="#2B8EEB"/>
<stop offset="1" stop-color="#1B77CD"/>
</linearGradient>
<linearGradient id="paint1_linear_2496_2115" x1="-46.3449" y1="285.143" x2="1558.66" y2="275.457" gradientUnits="userSpaceOnUse">
<stop stop-color="#1368B8"/>
<stop offset="1" stop-color="#1C96E7"/>
</linearGradient>
</defs>
</svg>
